<svg width="104" height="94" viewBox="0 0 104 94" fill="none" xmlns="http://www.w3.org/2000/svg" role="img" aria-label="Иконки чекбокса в разных состояниях."><rect x=".5" y=".5" width="103" height="93" rx="4.5" fill="transparent"/><g clip-path="url(#a)"><path fill-rule="evenodd" clip-rule="evenodd" d="M21.62 21.62a.96.96 0 0 1 .68-.29h11.4c.24 0 .34.03.4.06a1 1 0 0 1 .28.23c.21.2.29.43.29.68V33.7a.96.96 0 0 1-.97.96H22.3a.96.96 0 0 1-.97-.96V22.3c0-.26.1-.5.29-.68Zm14.22 12.92A2.3 2.3 0 0 1 33.7 36H22.3a2.3 2.3 0 0 1-2.3-2.3V22.3a2.3 2.3 0 0 1 1.46-2.14c.11-.1.27-.16.43-.16H33.7c.34 0 .65.04.94.17.28.12.5.31.69.5.48.48.67 1.06.67 1.63v11.8c0 .18-.06.33-.16.44Z" fill="#2D3440"/></g><g clip-path="url(#b)"><path fill-rule="evenodd" clip-rule="evenodd" d="M48.62 21.62a.96.96 0 0 1 .68-.29h11.4c.24 0 .34.03.4.06a1 1 0 0 1 .28.23c.21.2.29.43.29.68V33.7a.96.96 0 0 1-.97.96H49.3a.96.96 0 0 1-.97-.96V22.3c0-.26.1-.5.29-.68Zm14.22 12.92A2.3 2.3 0 0 1 60.7 36H49.3a2.3 2.3 0 0 1-2.3-2.3V22.3a2.3 2.3 0 0 1 1.46-2.14c.11-.1.27-.16.43-.16H60.7c.34 0 .65.04.94.17.28.12.5.31.69.5.48.48.67 1.06.67 1.63v11.8c0 .18-.06.33-.16.44Z" fill="#FCFCFC"/></g><g clip-path="url(#c)"><g clip-path="url(#d)"><path fill-rule="evenodd" clip-rule="evenodd" d="M21.62 57.62a.96.96 0 0 1 .68-.29h8.95a.67.67 0 1 0 0-1.33H22.3a2.3 2.3 0 0 0-2.3 2.3v11.4a2.3 2.3 0 0 0 2.3 2.3h11.4a2.3 2.3 0 0 0 2.3-2.3V64a.67.67 0 1 0-1.34 0v5.7a.96.96 0 0 1-.96.97H22.3a.96.96 0 0 1-.97-.97V58.3c0-.26.1-.5.29-.68Zm14.2.32a.67.67 0 0 0-.97-.92l-7.24 7.64-1.83-1.93a.67.67 0 1 0-.97.91l2.32 2.45a.67.67 0 0 0 .97 0l7.72-8.15Z" fill="#2D3440"/></g></g><g clip-path="url(#e)"><g clip-path="url(#f)"><path fill-rule="evenodd" clip-rule="evenodd" d="M48.62 57.62a.96.96 0 0 1 .68-.29h8.95a.67.67 0 1 0 0-1.33H49.3a2.3 2.3 0 0 0-2.3 2.3v11.4a2.3 2.3 0 0 0 2.3 2.3h11.4a2.3 2.3 0 0 0 2.3-2.3V64a.67.67 0 1 0-1.34 0v5.7a.96.96 0 0 1-.96.97H49.3a.96.96 0 0 1-.97-.97V58.3c0-.26.1-.5.29-.68Zm14.2.32a.67.67 0 0 0-.97-.92l-7.24 7.64-1.83-1.93a.67.67 0 1 0-.97.91l2.32 2.45a.67.67 0 0 0 .97 0l7.72-8.15Z" fill="#FCFCFC"/></g></g><g opacity=".5" clip-path="url(#g)"><path fill-rule="evenodd" clip-rule="evenodd" d="M75.62 21.62a.96.96 0 0 1 .68-.29h11.4c.24 0 .34.03.4.06a1 1 0 0 1 .28.23c.21.2.29.43.29.68V33.7a.96.96 0 0 1-.97.96H76.3a.96.96 0 0 1-.97-.96V22.3c0-.26.1-.5.29-.68Zm14.22 12.92A2.3 2.3 0 0 1 87.7 36H76.3a2.3 2.3 0 0 1-2.3-2.3V22.3a2.3 2.3 0 0 1 1.46-2.14c.11-.1.27-.16.43-.16H87.7c.34 0 .65.04.94.17.28.12.5.31.69.5.48.48.67 1.06.67 1.63v11.8c0 .18-.06.33-.16.44Z" fill="#2D3440"/></g><g clip-path="url(#h)"><g clip-path="url(#i)" opacity=".5"><path fill-rule="evenodd" clip-rule="evenodd" d="M75.62 57.62a.96.96 0 0 1 .68-.29h8.95a.67.67 0 1 0 0-1.33H76.3a2.3 2.3 0 0 0-2.3 2.3v11.4a2.3 2.3 0 0 0 2.3 2.3h11.4a2.3 2.3 0 0 0 2.3-2.3V64a.67.67 0 1 0-1.34 0v5.7a.96.96 0 0 1-.96.97H76.3a.96.96 0 0 1-.97-.97V58.3c0-.26.1-.5.29-.68Zm14.2.32a.67.67 0 0 0-.97-.92l-7.24 7.64-1.83-1.93a.67.67 0 1 0-.97.91l2.32 2.45a.67.67 0 0 0 .97 0l7.72-8.15Z" fill="#2D3440"/></g></g><rect x=".5" y=".5" width="103" height="93" rx="4.5" stroke="#7B61FF" stroke-dasharray="10 5"/><defs><clipPath id="a"><path fill="#fff" transform="translate(20 20)" d="M0 0h16v16H0z"/></clipPath><clipPath id="b"><path fill="#fff" transform="translate(47 20)" d="M0 0h16v16H0z"/></clipPath><clipPath id="c"><path fill="#fff" transform="translate(20 56)" d="M0 0h16v16H0z"/></clipPath><clipPath id="d"><path fill="#fff" transform="translate(20 56)" d="M0 0h16v16H0z"/></clipPath><clipPath id="e"><path fill="#fff" transform="translate(47 56)" d="M0 0h16v16H0z"/></clipPath><clipPath id="f"><path fill="#fff" transform="translate(47 56)" d="M0 0h16v16H0z"/></clipPath><clipPath id="g"><path fill="#fff" transform="translate(74 20)" d="M0 0h16v16H0z"/></clipPath><clipPath id="h"><path fill="#fff" transform="translate(74 56)" d="M0 0h16v16H0z"/></clipPath><clipPath id="i"><path fill="#fff" transform="translate(74 56)" d="M0 0h16v16H0z"/></clipPath></defs></svg>