<svg width="312" height="352" viewBox="0 0 312 352" fill="none" xmlns="http://www.w3.org/2000/svg" role="img" aria-label="Иконки."><path fill="transparent" d="M0 0h312v352H0z"/><path d="M65.22 70.1h5.13v9.89h.15l6.72-9.9h4.36V89h-5.13v-9.93h-.11L69.5 89h-4.28V70.1ZM84.08 89V74.82h5.1v5.06h.88l3.03-5.06h5.84l-4.54 7.16L98.97 89h-5.91l-2.74-4.4h-1.14V89h-5.1Zm22.32.26c-1.54 0-2.85-.3-3.95-.92a6.29 6.29 0 0 1-2.52-2.56 8.05 8.05 0 0 1-.88-3.83 8 8 0 0 1 .88-3.83 6.21 6.21 0 0 1 2.52-2.56 7.95 7.95 0 0 1 3.95-.93c1.54 0 2.86.31 3.95.93 1.1.6 1.94 1.46 2.53 2.56a8 8 0 0 1 .87 3.83c0 1.45-.3 2.73-.88 3.83a6.29 6.29 0 0 1-2.52 2.56c-1.1.61-2.4.92-3.95.92Zm.04-3.77c.43 0 .8-.14 1.12-.43.31-.3.55-.7.73-1.24.17-.54.25-1.17.25-1.91 0-.75-.08-1.38-.25-1.91a2.81 2.81 0 0 0-.73-1.24 1.6 1.6 0 0 0-1.12-.43c-.46 0-.85.14-1.17.43-.33.29-.58.7-.75 1.24a6.2 6.2 0 0 0-.26 1.9c0 .75.09 1.38.26 1.92s.42.95.75 1.24c.32.29.71.43 1.17.43Zm19.5-5.54v3.8h-7.13v-3.8h7.13Zm-5.32-5.13V89h-4.8V74.82h4.8Zm8.31 0V89h-4.76V74.82h4.76ZM131.36 89V74.82h5.1v5.06h.88l3.03-5.06h5.84l-4.55 7.16 4.58 7.02h-5.9l-2.74-4.4h-1.14V89h-5.1Zm20.87-6.5 3.95-7.68h4.8V89h-4.8v-7.72L152.23 89h-4.8V74.82h4.8v7.68ZM76.03 265.2a5.11 5.11 0 0 1 4.32 2.42 4.75 4.75 0 0 1 .02 4.85 1.6 1.6 0 0 1 1.33 1.07 1.55 1.55 0 0 1-.4 1.64 1.66 1.66 0 0 1-1.69.38c-.28-.1-.54-.26-.74-.49-.2-.23-.32-.5-.36-.8l-.2.1c-.08.53-.36 1.01-.78 1.36a2.36 2.36 0 0 1-3 0c-.43-.35-.7-.83-.8-1.36l-.19-.1c-.04.3-.17.58-.36.8a1.65 1.65 0 0 1-1.64.53 1.58 1.58 0 0 1-1.18-2.06c.1-.28.27-.53.5-.72.24-.19.53-.3.83-.35a4.75 4.75 0 0 1 1.84-6.62 5.12 5.12 0 0 1 2.5-.65Zm0-1.2a6.38 6.38 0 0 0-5.04 2.48 5.96 5.96 0 0 0-.9 5.42 2.73 2.73 0 0 0-.53 3.82 2.94 2.94 0 0 0 3.91.69 3.57 3.57 0 0 0 2.56 1.06 3.66 3.66 0 0 0 2.58-1.06 2.94 2.94 0 0 0 3.84-.73 2.73 2.73 0 0 0-.48-3.78 5.9 5.9 0 0 0-.9-5.42 6.2 6.2 0 0 0-5.04-2.48Z" fill="#2D3440"/><path d="M80.13 277.53c-.48 0-.97-.1-1.41-.29l-.2.15.09.09-.7.67-.29-.29-.37.13.42.4-.69.67-.7-.67.28-.26a4.48 4.48 0 0 1-1.04 0l.27.26-.69.67-.69-.67.41-.4a4 4 0 0 1-.37-.12l-.3.28-.7-.67.1-.09c-.08-.04-.15-.1-.22-.15-.44.2-.92.3-1.41.3h-.1c-.02.09-.01.18.02.27l3.6 9.8.02.04c0 .02 0 .03.02.04a.7.7 0 0 0 .04.07l.01.02.08.08.01.01.07.05.03.02.08.03h.02l.07.02h.26l.06-.02h.04a.67.67 0 0 0 .07-.03l.03-.02a.39.39 0 0 0 .07-.05l.02-.01a.7.7 0 0 0 .07-.08l.02-.02a.56.56 0 0 0 .04-.07l.03-.07 3.61-9.81a.56.56 0 0 0 .03-.28h-.1Zm-2.47 2.69-.7.67-.67-.67.69-.67.68.67Zm-2.32.9.7-.66.68.67-.69.67-.69-.67Zm1.38 1.83-.69.67-.69-.67.7-.67.68.67Zm-.69-4.31.7.67-.7.66-.69-.67.7-.67Zm-.25 1.58-.69.67-.69-.67.7-.67.68.67Zm-2.63-2.43.07-.07.68.67-.39.38-.36-.98Zm.49 1.34.5-.5.7.68-.68.66-.32-.3-.2-.54Zm.5 1.35.02-.02.68.68-.34.34-.36-1Zm.73 2.02-.25-.69.47-.44.69.67-.69.68-.22-.22Zm.61 1.65-.33-.9.63.62-.3.28Zm.54 1.47-.4-1.1.4-.41.41.4-.41 1.11Zm.54-1.48-.27-.27.6-.6-.33.87Zm.61-1.62-.2.2-.68-.68.69-.67.45.44-.26.71Zm.4-1.07-.34-.32.69-.67-.36 1Zm.64-1.76-.3.28-.69-.67.7-.67.49.5-.2.56Zm.34-.92-.39-.38.7-.67.05.06-.36.99ZM236 264a6 6 0 0 0-5.96 5.3H230v11.9h12v-11.9h-.04A6 6 0 0 0 236 264Zm4.59 15.8h-9.18v-6.51a1.27 1.27 0 0 0 1.09.45c.9 0 1.5-.5 1.5-1.15v-.61a.61.61 0 0 1 .6-.68.6.6 0 0 1 .46.2.6.6 0 0 1 .15.48v2.32a1.32 1.32 0 0 0 1.5 1.3 1.34 1.34 0 0 0 1.02-.3 1.3 1.3 0 0 0 .47-.94v-1.56a.95.95 0 1 1 1.9 0v.06a.8.8 0 0 0 .47.63v6.35l.02-.04ZM234.94 286.94a1.06 1.06 0 0 0 1.8.75c.2-.2.32-.47.32-.75v-5.02h-2.12v5.02ZM118.4 267.8c0-1-.38-1.97-1.03-2.69a3.37 3.37 0 0 0-2.48-1.11c-.93 0-1.82.4-2.47 1.11a3.97 3.97 0 0 0-1.03 2.7v11.06a5.77 5.77 0 0 0-.8 6.28c.38.79.94 1.46 1.63 1.95a4.71 4.71 0 0 0 4.68.47c.76-.35 1.42-.9 1.94-1.6a5.85 5.85 0 0 0 .84-5.03 5.48 5.48 0 0 0-1.29-2.22V267.8Zm.12 14.8c0 .65-.14 1.3-.43 1.88a3.77 3.77 0 0 1-1.23 1.43 3.37 3.37 0 0 1-4.83-1.05 4.09 4.09 0 0 1-.35-3.75c.24-.6.62-1.14 1.1-1.54V267.8c0-.6.22-1.19.62-1.62.4-.43.93-.67 1.5-.67.55 0 1.09.24 1.48.67.4.43.62 1.01.62 1.62v11.63c.47.35.85.83 1.12 1.38.26.55.4 1.16.4 1.79Z" fill="#2D3440"/><path d="M115.65 280.23v-12.38c0-.2-.07-.39-.2-.53a.67.67 0 0 0-.5-.22.67.67 0 0 0-.49.22.8.8 0 0 0-.2.54v12.37c-.47.18-.86.53-1.1.99-.25.46-.35 1-.26 1.53.08.53.33 1 .7 1.35a2 2 0 0 0 1.35.53 2 2 0 0 0 1.35-.53c.38-.34.63-.82.71-1.35.08-.53 0-1.07-.26-1.53a2.14 2.14 0 0 0-1.1-1ZM124 266.96h-4.17v1.5H124v-1.5ZM124 269.98h-4.17v1.51H124v-1.51ZM124 273h-4.17v1.51H124v-1.5ZM124 276.03h-4.17v1.5H124v-1.5ZM163 277.86c-.31-6.8-6.24-13.4-6.5-13.68h-.04l-.08-.1-.1-.05h-.37l-.13-.03h-.03l-.13.09-.07.06h-.03c-.27.32-6.2 6.91-6.52 13.71V278.8c.26 7.38 6.78 9.18 6.84 9.2h.33a9.8 9.8 0 0 0 6.83-9.2V277.86Zm-12.2-2.51a16.68 16.68 0 0 0 4.53 2.94v3.26c-1.66-.86-4.22-2.4-4.97-3.76.06-.83.2-1.64.41-2.44h.02Zm1.35-3.66a8.32 8.32 0 0 0 3.18 2.2v2.82a12.98 12.98 0 0 1-4.07-2.87c.26-.73.55-1.45.89-2.14Zm8.61 2.15a12.97 12.97 0 0 1-4.06 2.87v-2.82a8.34 8.34 0 0 0 3.15-2.2c.34.7.65 1.4.91 2.13v.02Zm-4.06-1.47v-5.73a32.3 32.3 0 0 1 2.47 3.7 6.21 6.21 0 0 1-2.49 2l.02.03Zm0 9.2v-3.28c1.65-.71 3.19-1.7 4.55-2.93.2.8.34 1.63.4 2.45-.75 1.34-3.3 2.87-4.97 3.73l.02.03Zm-1.36-9.2a6.15 6.15 0 0 1-2.49-2.02c.74-1.31 1.57-2.56 2.48-3.75l.01 5.77Zm-4.84 7.69a22.61 22.61 0 0 0 4.83 3.07v3.15a8 8 0 0 1-3.17-2.46 8.63 8.63 0 0 1-1.66-3.76Zm6.18 6.23v-3.17c1.73-.8 3.35-1.83 4.83-3.06a8.53 8.53 0 0 1-1.65 3.77 7.9 7.9 0 0 1-3.18 2.46Z" fill="#2D3440"/><g clip-path="url(#a)"><path d="M204.06 271.71a9.08 9.08 0 0 0 .34-7.16.76.76 0 0 0-.66-.52.8.8 0 0 0-.44.08.78.78 0 0 0-.32.3c-1 1.72-3.13 4.48-4.69 4.61h-.07c-.71-.14-1.44-.21-2.17-.23-.74.02-1.47.1-2.19.23h-.05c-1.56-.12-3.73-2.88-4.72-4.6a.76.76 0 0 0-.32-.32.8.8 0 0 0-.88.07c-.13.1-.21.23-.26.38a8.98 8.98 0 0 0 .3 7.16c-1.35.16-3.07.59-3.7 1.65a1.62 1.62 0 0 0 0 1.66c.18.31.45.56.77.73.32.17.69.24 1.05.22a5.68 5.68 0 0 0 1.89-.37c0 .41.03.82.1 1.22.35 1.34.8 2.65 1.37 3.93l.4 1c-.26.6-.46 1.22-.6 1.86a3.23 3.23 0 0 0 .87 2.5c1.13 1.26 3.12 1.89 5.94 1.89 2.83 0 4.83-.63 5.95-1.89a3.29 3.29 0 0 0 .87-2.5c-.14-.64-.34-1.26-.59-1.87l.4-1a24.4 24.4 0 0 0 1.36-3.92c.08-.4.11-.8.1-1.22.59.22 1.2.35 1.83.37a2 2 0 0 0 1.06-.22c.32-.17.59-.42.77-.73a1.62 1.62 0 0 0 0-1.66c-.62-1.03-2.34-1.48-3.7-1.65Zm-.74-5c.28 1.57 0 3.2-.78 4.6a5.63 5.63 0 0 0-2.11-1.6c1.12-.85 2.1-1.86 2.89-3Zm-14.6 0a12.73 12.73 0 0 0 2.89 3.01c-.55.23-1.05.55-1.48.95-.22.21-.43.43-.63.66a6.96 6.96 0 0 1-.78-4.63Zm-3.08 7.59c-.07-.12-.04-.16 0-.2.18-.29 1.09-.75 2.82-.92-.09.22-.16.44-.23.66-1.02.51-2.38.83-2.59.46Zm16.83 2.26a24.98 24.98 0 0 1-1.26 3.63c-.2.46-.39.94-.54 1.42l-.05.23.09.21c.24.58.44 1.17.6 1.77a1.74 1.74 0 0 1-.51 1.3c-.56.63-1.84 1.37-4.77 1.37-2.93 0-4.2-.75-4.77-1.37a1.82 1.82 0 0 1-.5-1.3c.15-.6.36-1.2.6-1.77l.09-.21-.05-.23c-.15-.49-.33-.96-.53-1.42-.53-1.19-.96-2.41-1.28-3.66a5.25 5.25 0 0 1 1.65-4.8c1.18-1.15 3.85-1.4 4.78-1.41.92 0 3.54.25 4.79 1.43a5.34 5.34 0 0 1 1.66 4.78v.03Zm3.9-2.26c-.2.36-1.56.05-2.53-.45a7.27 7.27 0 0 0-.22-.67c1.71.17 2.61.63 2.78.93.04.03.06.07-.01.19h-.02Z" fill="#2D3440"/></g><path fill-rule="evenodd" clip-rule="evenodd" d="M129.17 161.25a.67.67 0 1 0 0 1.33h1.77l.47 2.34v.05l.97 4.84a1.83 1.83 0 0 0 1.82 1.47h5.62a1.83 1.83 0 0 0 1.82-1.47v-.01l.93-4.86a.67.67 0 0 0-.66-.8h-9.3l-.47-2.35a.67.67 0 0 0-.66-.54h-2.31Zm4.52 8.3-.81-4.07h8.23l-.78 4.07a.49.49 0 0 1-.49.4H134.18a.5.5 0 0 1-.49-.4Zm-1.13 3.95a1.25 1.25 0 1 1 2.49 0 1.25 1.25 0 0 1-2.5 0Zm6.37 0a1.24 1.24 0 1 1 2.49 0 1.24 1.24 0 0 1-2.49 0ZM176 136a8 8 0 1 1-16 0 8 8 0 0 1 16 0Zm-7.6 1.98h-.49s-1.05.06-1.98-.79c-1.01-.92-1.9-2.76-1.9-2.76s-.06-.12 0-.18.23-.07.23-.07h1.14s.11.01.19.06c.06.04.1.12.1.12s.18.4.43.78c.47.72.7.88.86.8.24-.1.17-1.02.17-1.02s0-.33-.12-.48c-.1-.11-.28-.14-.36-.15-.06-.01.04-.14.18-.2.2-.09.57-.1 1-.09.33 0 .43.02.56.05.3.06.3.27.27.71l-.01.47v.12c-.01.23-.02.5.15.59.09.05.3 0 .84-.8.25-.37.44-.81.44-.81s.05-.08.1-.12c.08-.03.17-.02.17-.02h1.2s.36-.04.42.1c.06.15-.14.5-.63 1.07-.46.54-.69.75-.67.92.01.13.16.25.44.48.6.48.75.74.8.8.26.4-.3.42-.3.42l-1.06.02s-.23.04-.53-.15c-.16-.1-.32-.25-.47-.4-.22-.22-.43-.43-.6-.38-.3.08-.3.65-.3.65s0 .12-.06.18c-.07.07-.22.08-.22.08ZM105 161.67c0-.37.3-.67.67-.67h2.66a2 2 0 0 1 2 2v9.33a2 2 0 0 1-2 2h-2.66a.67.67 0 1 1 0-1.33h2.66a.67.67 0 0 0 .67-.67V163a.67.67 0 0 0-.67-.67h-2.66a.67.67 0 0 1-.67-.66Zm-3.14 2.2a.67.67 0 0 1 .95 0l3.32 3.32a.8.8 0 0 1 .13.18.66.66 0 0 1-.13.77l-3.32 3.33a.67.67 0 1 1-.95-.94l2.2-2.2h-6.4a.67.67 0 1 1 0-1.33h6.4l-2.2-2.2a.67.67 0 0 1 0-.94ZM66.66 167.33a4.67 4.67 0 1 1 9.34 0 4.67 4.67 0 0 1-9.34 0Zm8.42 4.69a6 6 0 1 1 .94-.94l2.45 2.44a.67.67 0 0 1-.94.95l-2.45-2.45ZM172.8 196.14a.67.67 0 0 0-.94-.94l-3.86 3.86-3.86-3.87a.67.67 0 0 0-.94.95l3.86 3.86-3.87 3.86a.67.67 0 0 0 .95.94l3.86-3.86 3.86 3.86a.67.67 0 0 0 .94-.94l-3.86-3.86 3.86-3.86ZM168 162.33a5.67 5.67 0 1 0 0 11.34 5.67 5.67 0 0 0 0-11.34Zm-7 5.67a7 7 0 1 1 14 0 7 7 0 0 1-14 0Zm7-.67c.37 0 .67.3.67.67v2.53a.67.67 0 1 1-1.34 0V168c0-.37.3-.67.67-.67Zm0-2.53a.67.67 0 1 0 0 1.33.67.67 0 1 0 0-1.33ZM73.8 195.8a.66.66 0 1 0-.94-.94l-4.67 4.67a.67.67 0 0 0 0 .94l4.67 4.67a.66.66 0 1 0 .94-.94l-4.2-4.2 4.2-4.2ZM103.14 194.87a.66.66 0 1 0-.95.94l4.2 4.2-4.2 4.2a.66.66 0 1 0 .95.94l4.66-4.67a.67.67 0 0 0 0-.94l-4.66-4.67ZM131.8 198.2a.67.67 0 0 0-.94.94l4.67 4.66a.66.66 0 0 0 .94 0h.01l4.66-4.66a.67.67 0 1 0-.94-.94l-4.2 4.19-4.2-4.2Z" fill="#2D3440"/><path d="M77.9 131a3.69 3.69 0 0 0-5.2 0l-.7.7-.7-.7a3.67 3.67 0 0 0-5.2 5.18l.71.7 5.19 5.2 5.18-5.2.71-.7a3.66 3.66 0 0 0 0-5.19Z" fill="#2D3440"/><path fill-rule="evenodd" clip-rule="evenodd" d="M134.47 227.8a.67.67 0 0 0-.94-.94l-4.66 4.67a.67.67 0 0 0 0 .94l4.66 4.67a.67.67 0 1 0 .94-.94l-3.52-3.53h11.72a.67.67 0 0 0 0-1.33h-11.72l3.53-3.53ZM74.48 226.87a.67.67 0 0 0-.94.94l3.52 3.53H65.34a.67.67 0 1 0 0 1.33h11.72l-3.52 3.53a.67.67 0 1 0 .94.94l4.66-4.66a.67.67 0 0 0 0-.95l-4.66-4.66ZM168.67 225.34a.67.67 0 1 0-1.33 0v11.72l-3.53-3.53a.67.67 0 0 0-.94.94l4.66 4.67c.26.26.68.26.94 0l4.67-4.66a.67.67 0 1 0-.94-.95l-3.53 3.53v-11.72ZM99.35 227.15a.5.5 0 0 0-.7.7l2.14 2.15-2.14 2.15a.5.5 0 0 0 .7.7l2.5-2.5a.5.5 0 0 0 0-.7l-2.5-2.5Zm3.5 0a.5.5 0 0 0-.7.7l2.14 2.15-2.14 2.15a.5.5 0 0 0 .7.7l2.5-2.5a.5.5 0 0 0 0-.7l-2.5-2.5ZM112 136a8 8 0 1 1-16 0 8 8 0 0 1 16 0Zm-7.71-2.1-4.67 2.01c-.38.16-.58.3-.6.45-.02.24.28.34.7.47l.17.05c.4.14.96.3 1.24.3.26 0 .55-.1.87-.32a81.99 81.99 0 0 1 3.38-2.23c.05-.01.12-.03.16.01.05.04.04.12.04.14a22.42 22.42 0 0 1-2.2 2.16l-.2.18c-.37.37-.66.64.02 1.1a76.95 76.95 0 0 1 2.06 1.38c.33.23.63.45 1 .41.2-.02.43-.22.54-.82.27-1.41.79-4.48.9-5.75.02-.1.01-.21 0-.31a.34.34 0 0 0-.12-.22.53.53 0 0 0-.3-.1c-.31.01-.77.17-3 1.1Z" fill="#2D3440"/><path d="m137.34 135.86-1.88-.87c-.16-.08-.3 0-.3.19v1.64c0 .18.14.27.3.2l1.88-.88c.16-.08.16-.2 0-.28ZM136 128a8 8 0 1 0 0 16 8 8 0 0 0 0-16Zm0 11.25c-4.1 0-4.17-.37-4.17-3.25s.07-3.25 4.17-3.25 4.17.37 4.17 3.25-.07 3.25-4.17 3.25Z" fill="#2D3440"/><defs><clipPath id="a"><path fill="#fff" transform="translate(184 264)" d="M0 0h24v24H0z"/></clipPath></defs></svg>